<svg preserveAspectRatio="none" width="100%" height="100%" overflow="visible" style="display: block;" viewBox="0 0 122.001 125.55" fill="none" xmlns="http://www.w3.org/2000/svg">
<g id="Group">
<path id="Vector" d="M35.8443 74.6056H17.7291C14.7863 74.6056 12.4009 76.9911 12.4009 79.9339V120.221C12.4009 123.164 14.7863 125.549 17.7291 125.549H35.8441C38.7869 125.549 41.1724 123.164 41.1724 120.221V79.9339C41.1724 76.9911 38.7869 74.6056 35.8443 74.6056Z" fill="var(--fill-0, #5392BC)"/>
<path id="Vector_2" d="M19.9795 120.221V79.9339C19.9795 76.9913 22.3649 74.6056 25.3077 74.6056H17.7291C14.7863 74.6056 12.4009 76.9911 12.4009 79.9339V120.221C12.4009 123.164 14.7863 125.55 17.7291 125.55H25.3075C22.3649 125.549 19.9795 123.164 19.9795 120.221Z" fill="var(--fill-0, #1E6FA8)" fill-opacity="0.4"/>
<path id="Vector_3" d="M74.9103 56.1287H56.7953C53.8525 56.1287 51.467 58.5142 51.467 61.457V120.221C51.467 123.164 53.8525 125.55 56.7953 125.55H74.9103C77.8531 125.55 80.2385 123.164 80.2385 120.221V61.4568C80.2385 58.5142 77.8531 56.1287 74.9103 56.1287Z" fill="var(--fill-0, #1E6FA8)"/>
<path id="Vector_4" d="M59.0454 120.221V61.457C59.0454 58.5142 61.4308 56.1287 64.3736 56.1287H56.7953C53.8525 56.1287 51.467 58.5142 51.467 61.457V120.221C51.467 123.164 53.8525 125.55 56.7953 125.55H64.3736C61.4308 125.55 59.0454 123.164 59.0454 120.221Z" fill="var(--fill-0, #1B6599)"/>
<path id="Vector_5" d="M113.976 37.6518H95.8606C92.9178 37.6518 90.5323 40.0373 90.5323 42.9801V120.221C90.5323 123.164 92.9178 125.55 95.8606 125.55H113.976C116.918 125.55 119.304 123.164 119.304 120.221V42.9801C119.304 40.0373 116.918 37.6518 113.976 37.6518Z" fill="var(--fill-0, #154F77)"/>
<path id="Vector_6" d="M98.1107 120.221V42.9801C98.1107 40.0373 100.496 37.6518 103.439 37.6518H95.8606C92.9178 37.6518 90.5323 40.0373 90.5323 42.9801V120.221C90.5323 123.164 92.9178 125.55 95.8606 125.55H103.439C100.496 125.55 98.1107 123.164 98.1107 120.221Z" fill="var(--fill-0, #124567)"/>
<path id="Vector_7" d="M119.018 0.023208L100.718 2.40817L105.141 8.3247L89.4695 20.042L81.2261 12.7741C80.544 12.1728 79.6757 11.8246 78.7671 11.788C77.8585 11.7514 76.965 12.0286 76.2367 12.573L41.1872 38.7777L32.988 32.6355C32.3035 32.1227 31.4713 31.8453 30.616 31.8449C29.7607 31.8445 28.9283 32.1211 28.2433 32.6333L0 53.75L4.74147 60.0922L30.6119 40.7499L38.8111 46.8921C39.4956 47.4049 40.3278 47.6823 41.183 47.6827C42.0383 47.6831 42.8708 47.4065 43.5557 46.8943L78.4017 20.8409L86.6451 28.1089C87.3272 28.7102 88.1955 29.0585 89.1041 29.0951C90.0127 29.1318 90.9062 28.8545 91.6345 28.3099L109.883 14.6664L114.31 20.5881L121.771 3.7051C122.603 1.82406 121.057 -0.242605 119.018 0.023208Z" fill="var(--fill-0, #4B8CB9)"/>
</g>
</svg>
