<svg preserveAspectRatio="none" width="100%" height="100%" overflow="visible" style="display: block;" viewBox="0 0 140 128.451" fill="none" xmlns="http://www.w3.org/2000/svg">
<g id="Group">
<path id="Vector" d="M52.6727 102.379H89.2924V124.664H52.6727V102.379Z" fill="var(--fill-0, #A5C5DC)"/>
<path id="Vector_2" d="M80.8417 102.379H89.2924V124.664H80.8417V102.379Z" fill="var(--fill-0, #607D8B)" fill-opacity="0.2"/>
<path id="Vector_3" d="M137.746 107.042H2.25352C1.65585 107.042 1.08266 106.805 0.660041 106.382C0.237424 105.96 0 105.386 0 104.789V13.5211C0 12.9234 0.237424 12.3502 0.660041 11.9276C1.08266 11.505 1.65585 11.2676 2.25352 11.2676H137.746C138.344 11.2676 138.917 11.505 139.34 11.9276C139.763 12.3502 140 12.9234 140 13.5211V104.789C140 105.386 139.763 105.96 139.34 106.382C138.917 106.805 138.344 107.042 137.746 107.042Z" fill="var(--fill-0, #B9D2E4)"/>
<path id="Vector_4" d="M137.747 11.2676H129.296C129.894 11.2676 130.467 11.505 130.889 11.9276C131.312 12.3502 131.549 12.9234 131.549 13.5211V104.789C131.549 105.386 131.312 105.96 130.889 106.382C130.467 106.805 129.894 107.042 129.296 107.042H137.747C138.344 107.042 138.917 106.805 139.34 106.382C139.763 105.96 140 105.386 140 104.789V13.5211C140 12.9234 139.763 12.3502 139.34 11.9276C138.917 11.505 138.344 11.2676 137.747 11.2676Z" fill="var(--fill-0, #A5C5DC)"/>
<path id="Vector_5" d="M8.45117 97.4652V20.8455C8.45117 20.5467 8.56988 20.2601 8.78119 20.0488C8.9925 19.8375 9.2791 19.7188 9.57793 19.7188H130.423C130.722 19.7188 131.008 19.8375 131.22 20.0488C131.431 20.2601 131.55 20.5467 131.55 20.8455V97.4652C131.55 97.7641 131.431 98.0507 131.22 98.262C131.008 98.4733 130.722 98.592 130.423 98.592H9.57793C9.2791 98.592 8.9925 98.4733 8.78119 98.262C8.56988 98.0507 8.45117 97.7641 8.45117 97.4652Z" fill="var(--fill-0, #E9F1F6)"/>
<path id="Vector_6" d="M103.414 128.451H38.5515C36.218 128.451 34.3262 126.559 34.3262 124.225C34.3262 121.892 36.218 120 38.5515 120H103.414C105.748 120 107.64 121.892 107.64 124.225C107.64 126.559 105.748 128.451 103.414 128.451Z" fill="var(--fill-0, #B9D2E4)"/>
<path id="Vector_7" d="M103.414 120H94.9629C97.2964 120 99.1882 121.892 99.1882 124.225C99.1882 126.559 97.2964 128.451 94.9629 128.451H103.414C105.747 128.451 107.639 126.559 107.639 124.225C107.639 121.892 105.747 120 103.414 120Z" fill="var(--fill-0, #A5C5DC)"/>
<g id="Group_2">
<path id="Vector_8" d="M77.5186 32.5735C77.5186 36.0011 75.5313 38.8377 73.0797 38.8377C70.6282 38.8377 68.3234 35.0848 68.3234 31.6572C68.3234 28.2296 70.6282 26.3673 73.0797 26.3673C75.5313 26.3673 77.5186 29.1459 77.5186 32.5735ZM110.975 32.5735C110.975 36.0011 112.962 38.8377 115.414 38.8377C117.865 38.8377 120.17 35.0848 120.17 31.6572C120.17 28.2296 117.865 26.3673 115.414 26.3673C112.962 26.3673 110.975 29.1459 110.975 32.5735ZM98.4718 68.0217H90.0211V50.5375H98.4718V68.0217Z" fill="var(--fill-0, #E8916F)"/>
</g>
<path id="Vector_9" d="M75.3633 34.5435V20.5187C75.3633 10.6832 83.3365 2.70996 93.172 2.70996H95.3205C105.156 2.70996 113.129 10.6832 113.129 20.5187V34.5435C113.129 44.9655 104.68 53.4139 94.2588 53.4139H94.234C83.812 53.4142 75.3633 44.9655 75.3633 34.5435Z" fill="var(--fill-0, #EBAD88)"/>
<path id="Vector_10" d="M95.3212 2.70996H93.1727C92.0967 2.70996 91.0451 2.81081 90.0215 2.99362C98.353 4.48207 104.679 11.7593 104.679 20.5187V34.5435C104.679 43.5164 98.4142 51.0212 90.0215 52.9359C91.4034 53.2527 92.8166 53.413 94.2344 53.4139H94.2589C104.681 53.4139 113.129 44.9652 113.129 34.5432V20.5184C113.13 10.6832 105.156 2.70996 95.3212 2.70996Z" fill="var(--fill-0, #E8916F)"/>
<path id="Vector_11" d="M115.62 26.3715C113.144 26.8192 113.13 31.3913 113.13 31.3913C113.13 31.3913 111.097 32.2473 110.664 31.0642C107.019 21.1014 92.9727 22.6203 86.3508 14.7462C83.0499 10.8211 79.5423 16.9946 79.2925 20.0211C79.0406 23.0459 78.4866 29.9907 77.8291 31.0642C77.1699 32.1377 75.3637 31.3913 75.3637 31.3913C75.3637 31.3913 75.3496 26.8192 72.8739 26.3715C72.8739 26.3715 70.7373 20.8501 71.9226 14.7025C73.3719 7.18085 77.5508 0 94.2463 0C110.942 0 115.121 7.18085 116.57 14.7025C117.756 20.8501 115.62 26.3715 115.62 26.3715Z" fill="var(--fill-0, #BF6724)"/>
<path id="Vector_12" d="M116.57 14.7025C115.121 7.18085 110.942 0 94.2468 0C92.7381 0 91.333 0.0594364 90.0215 0.171549C103.223 1.30113 106.801 7.86028 108.12 14.7023C109.178 20.189 107.591 25.1732 107.237 26.1823C108.717 27.4434 109.912 29.009 110.664 31.0639C111.097 32.247 113.13 31.391 113.13 31.391C113.13 31.391 113.144 26.8189 115.62 26.3713C115.62 26.3713 117.756 20.8499 116.57 14.7025Z" fill="var(--fill-0, #A35418)"/>
<path id="Vector_13" d="M46.75 39.2627V63.488C46.75 68.1554 50.5334 71.9388 55.2007 71.9388H68.0261V86.8965H120.48V73.6289C120.48 66.4726 114.678 60.6711 107.522 60.6711H59.1444C58.8455 60.6711 58.5589 60.5524 58.3476 60.3411C58.1363 60.1298 58.0176 59.8432 58.0176 59.5444V39.2627H46.75Z" fill="var(--fill-0, #80DEEA)"/>
<path id="Vector_14" d="M46.75 39.2627V63.488C46.75 68.1554 50.5334 71.9388 55.2007 71.9388H68.0261V86.8965H120.48V73.6289C120.48 66.4726 114.678 60.6711 107.522 60.6711H59.1444C58.8455 60.6711 58.5589 60.5524 58.3476 60.3411C58.1363 60.1298 58.0176 59.8432 58.0176 59.5444V39.2627H46.75Z" fill="var(--fill-0, #1E6FA8)"/>
<path id="Vector_15" d="M107.521 60.6709H99.0703C106.227 60.6709 112.028 66.4723 112.028 73.6286V86.8962H120.479V73.6286C120.479 66.4723 114.677 60.6709 107.521 60.6709Z" fill="var(--fill-0, #1B6599)"/>
<path id="Vector_16" d="M52.4594 1.98047C51.899 1.98047 51.3617 2.20305 50.9655 2.59926C50.5693 2.99546 50.3467 3.53283 50.3467 4.09314V30.0086C50.3467 31.1757 51.2926 32.1213 52.4594 32.1213C53.6261 32.1213 54.572 31.1757 54.572 30.0086V4.09314C54.572 3.53283 54.3494 2.99546 53.9532 2.59926C53.557 2.20305 53.0197 1.98047 52.4594 1.98047Z" fill="var(--fill-0, #78909C)"/>
<path id="Vector_17" d="M99.722 69.1216H88.7715C86.0391 69.1216 83.8242 66.9067 83.8242 64.1743V60.6709H104.669V64.1743C104.669 66.9067 102.454 69.1216 99.722 69.1216Z" fill="var(--fill-0, #154F77)"/>
<path id="Vector_18" d="M124.93 84.7832H15.0707C13.9039 84.7832 12.958 85.7288 12.958 86.8959C12.958 88.0629 13.9039 89.0086 15.0707 89.0086H124.93C126.097 89.0086 127.043 88.0629 127.043 86.8959C127.043 85.7288 126.097 84.7832 124.93 84.7832Z" fill="var(--fill-0, #F2C0BE)"/>
<path id="Vector_19" d="M33.7949 48.0944L23.5417 37.8958C23.2223 37.5781 22.6758 37.8031 22.6758 38.2527V58.6499C22.6758 59.0995 23.2223 59.3245 23.5417 59.0068L33.7949 48.8082C33.993 48.611 33.993 48.2916 33.7949 48.0944Z" fill="var(--fill-0, #D6342C)"/>
<path id="Vector_20" d="M39.6857 91.967C42.486 91.967 44.7561 89.6969 44.7561 86.8966C44.7561 84.0963 42.486 81.8262 39.6857 81.8262C36.8853 81.8262 34.6152 84.0963 34.6152 86.8966C34.6152 89.6969 36.8853 91.967 39.6857 91.967Z" fill="var(--fill-0, #D6342C)"/>
<path id="Vector_21" d="M48.0836 41.2754H56.834C57.4667 41.2754 58.0734 41.0241 58.5207 40.5768C58.9681 40.1294 59.2194 39.5227 59.2194 38.8901V32.3932C59.2194 31.7605 58.9681 31.1538 58.5207 30.7065C58.0734 30.2591 57.4667 30.0078 56.834 30.0078H48.0836C47.451 30.0078 46.8442 30.2591 46.3969 30.7065C45.9496 31.1538 45.6982 31.7605 45.6982 32.3932V38.8901C45.6982 39.5227 45.9496 40.1294 46.3969 40.5768C46.8442 41.0241 47.451 41.2754 48.0836 41.2754Z" fill="var(--fill-0, #EBAD88)"/>
</g>
</svg>
