<svg preserveAspectRatio="none" width="100%" height="100%" overflow="visible" style="display: block;" viewBox="0 0 140 140" fill="none" xmlns="http://www.w3.org/2000/svg">
<g id="Group">
<path id="Vector" d="M67.271 130.535H2.8169C1.26113 130.535 0 129.274 0 127.718V25.1421C0 23.5863 1.26113 22.3252 2.8169 22.3252H67.271C68.8268 22.3252 70.0879 23.5863 70.0879 25.1421V127.718C70.0879 129.274 68.8268 130.535 67.271 130.535Z" fill="var(--fill-0, #E9F1F6)"/>
<path id="Vector_2" d="M70.0871 25.1411V120.781C70.0871 122.336 68.8259 123.597 67.2702 123.597H9.71241C8.15663 123.597 6.89551 122.336 6.89551 120.781V25.1411C6.89551 23.5853 8.15663 22.3242 9.71241 22.3242H67.2702C68.8259 22.3242 70.0871 23.5853 70.0871 25.1411Z" fill="var(--fill-0, #D6E5EF)"/>
<path id="Vector_3" d="M89.6748 119.372H13.937C12.3812 119.372 11.1201 118.111 11.1201 116.555V13.979C11.1201 12.4232 12.3812 11.1621 13.937 11.1621H89.675C91.2308 11.1621 92.4919 12.4232 92.4919 13.979V116.555C92.4917 118.111 91.2305 119.372 89.6748 119.372Z" fill="var(--fill-0, #E9F1F6)"/>
<path id="Vector_4" d="M92.4925 13.98V109.619C92.4925 111.175 91.2314 112.436 89.6756 112.436H20.8306C19.2748 112.436 18.0137 111.175 18.0137 109.619V13.98C18.0137 12.4242 19.2748 11.1631 20.8306 11.1631H89.6756C91.2314 11.1631 92.4925 12.4242 92.4925 13.98Z" fill="var(--fill-0, #D6E5EF)"/>
<path id="Vector_5" d="M22.2394 105.394V2.8169C22.2394 1.26113 23.5006 2.46102e-06 25.0563 2.46102e-06H100.794C102.35 2.46102e-06 103.611 1.26113 103.611 2.8169V105.394C103.611 106.95 102.35 108.211 100.794 108.211H25.0563C23.5006 108.211 22.2394 106.95 22.2394 105.394Z" fill="var(--fill-0, #E9F1F6)"/>
<path id="Vector_6" d="M70.7444 38.0832H93.0455C93.4191 38.0832 93.7773 37.9348 94.0414 37.6707C94.3056 37.4066 94.454 37.0483 94.454 36.6748V14.2776C94.454 13.904 94.3056 13.5458 94.0414 13.2817C93.7773 13.0175 93.4191 12.8691 93.0455 12.8691H70.7444C70.3708 12.8691 70.0126 13.0175 69.7485 13.2817C69.4843 13.5458 69.3359 13.904 69.3359 14.2776V36.6748C69.3359 37.0483 69.4843 37.4066 69.7485 37.6707C70.0126 37.9348 70.3708 38.0832 70.7444 38.0832Z" fill="var(--fill-0, #1E6FA8)"/>
<path id="Vector_7" d="M76.3772 38.0842H70.7434C69.9659 38.0842 69.335 37.4532 69.335 36.6758V14.2786C69.335 13.5011 69.9659 12.8701 70.7434 12.8701H76.3772C75.5998 12.8701 74.9688 13.5011 74.9688 14.2786V36.6758C74.9688 37.4532 75.5998 38.0842 76.3772 38.0842Z" fill="var(--fill-0, #1B6599)"/>
<path id="Vector_8" d="M60.179 36.782H31.3978C30.2308 36.782 29.2852 35.8364 29.2852 34.6693C29.2852 33.5023 30.2308 32.5567 31.3978 32.5567H60.179C61.346 32.5567 62.2916 33.5023 62.2916 34.6693C62.2916 35.8364 61.3457 36.782 60.179 36.782ZM77.4474 54.6423H48.4049C47.2378 54.6423 46.2922 53.6967 46.2922 52.5296C46.2922 51.3626 47.2378 50.4169 48.4049 50.4169H77.4474C78.6145 50.4169 79.5601 51.3626 79.5601 52.5296C79.5601 53.6967 78.6142 54.6423 77.4474 54.6423ZM60.179 27.5896H31.3978C30.2308 27.5896 29.2852 26.644 29.2852 25.4769C29.2852 24.3099 30.2308 23.3643 31.3978 23.3643H60.179C61.346 23.3643 62.2916 24.3099 62.2916 25.4769C62.2916 26.644 61.3457 27.5896 60.179 27.5896ZM60.179 18.3972H31.3978C30.2308 18.3972 29.2852 17.4516 29.2852 16.2846C29.2852 15.1175 30.2308 14.1719 31.3978 14.1719H60.179C61.346 14.1719 62.2916 15.1175 62.2916 16.2846C62.2916 17.4516 61.3457 18.3972 60.179 18.3972ZM74.7373 78.0175H31.3978C30.2308 78.0175 29.2852 77.0719 29.2852 75.9048C29.2852 74.7378 30.2308 73.7922 31.3978 73.7922H74.7373C75.9043 73.7922 76.8499 74.7378 76.8499 75.9048C76.8499 77.0719 75.9043 78.0175 74.7373 78.0175ZM65.6733 66.1986H31.3978C30.2308 66.1986 29.2852 65.253 29.2852 64.086C29.2852 62.9189 30.2308 61.9733 31.3978 61.9733H65.6733C66.8404 61.9733 67.786 62.9189 67.786 64.086C67.786 65.253 66.8401 66.1986 65.6733 66.1986ZM94.5852 66.1986H74.8308C73.6637 66.1986 72.7181 65.253 72.7181 64.086C72.7181 62.9189 73.6637 61.9733 74.8308 61.9733H94.5852C95.7522 61.9733 96.6978 62.9189 96.6978 64.086C96.6978 65.253 95.7522 66.1986 94.5852 66.1986Z" fill="var(--fill-0, #B9D2E4)"/>
<path id="Vector_9" d="M111.26 90.3495C112.815 90.3495 114.076 91.6107 114.076 93.1664V95.0791C114.076 102.33 108.22 108.212 100.995 108.212L58.2832 109.62L35.0596 108.212C42.2849 108.212 48.1441 102.33 48.1441 95.0791V93.1664C48.1441 91.6107 49.4052 90.3495 50.961 90.3495H111.26ZM103.612 72.4707V90.3495H74.2539C79.3328 79.5242 90.2793 72.4453 102.398 72.4453C102.803 72.4453 103.209 72.4538 103.612 72.4707Z" fill="var(--fill-0, #D6E5EF)"/>
<path id="Vector_10" d="M92.4934 90.3496V109.62C92.4934 111.175 91.2314 112.437 89.6765 112.437H72.5723C72.2568 111.372 72.0005 110.285 71.8005 109.175C71.4737 107.372 71.3047 105.513 71.3047 103.617C71.3047 100.071 71.8934 96.5891 73.0596 93.2679C73.4117 92.2679 73.8089 91.2961 74.254 90.3496H92.4934Z" fill="var(--fill-0, #B4CAD8)" fill-opacity="0.6"/>
<path id="Vector_11" d="M123.864 117.351L138.164 130.075C140.534 132.412 140.621 136.138 138.358 138.38C136.098 140.619 132.355 140.526 130.009 138.172L115.726 125.379L123.864 117.351Z" fill="var(--fill-0, #154F77)"/>
<path id="Vector_12" d="M128.107 121.127C125.945 124.308 123.216 127.064 120.056 129.257L115.727 125.381L123.865 117.35L128.107 121.127Z" fill="var(--fill-0, #124567)"/>
<path id="Vector_13" d="M92.4934 109.62V116.555C92.4934 118.11 91.2314 119.372 89.6765 119.372H75.5779C74.3075 117.214 73.2934 114.888 72.5723 112.437H89.6765C91.2314 112.437 92.4934 111.175 92.4934 109.62Z" fill="var(--fill-0, #D6E5EF)"/>
<path id="Vector_14" d="M76.9365 103.618C76.9365 100.644 77.4433 97.7885 78.3751 95.1339C81.8619 85.2001 91.2999 78.0801 102.395 78.0801C116.456 78.0801 127.854 89.5136 127.854 103.618C127.854 117.721 116.456 129.155 102.395 129.155C88.3348 129.155 76.9365 117.722 76.9365 103.618Z" fill="var(--fill-0, #1E6FA8)"/>
<path id="Vector_15" d="M121.899 120.029C117.234 125.609 110.229 129.155 102.398 129.155C88.3357 129.155 76.9385 117.722 76.9385 103.617C76.9385 100.643 77.4455 97.7891 78.3751 95.1328C80.099 90.2229 83.2793 86.0004 87.3948 82.9863C85.4267 85.334 83.898 88.0173 82.8821 90.9075C81.9526 93.5638 81.4455 96.4173 81.4455 99.392C81.4455 113.496 92.8427 124.93 106.905 124.93C112.51 124.93 117.693 123.11 121.899 120.029Z" fill="var(--fill-0, #1B6599)"/>
<path id="Vector_16" d="M86.501 103.617C86.4989 101.814 86.8026 100.023 87.3993 98.3205C89.5765 92.1182 95.4689 87.6729 102.396 87.6729C111.175 87.6729 118.292 94.8114 118.292 103.617C118.292 112.423 111.175 119.562 102.396 119.562C93.6176 119.562 86.501 112.423 86.501 103.617Z" fill="var(--fill-0, #E9F1F6)"/>
<path id="Vector_17" d="M116.078 111.732C113.312 116.419 108.219 119.56 102.397 119.56C93.6165 119.56 86.501 112.422 86.501 103.616C86.501 101.76 86.8165 99.977 87.3996 98.3207C88.6476 94.7729 91.1075 91.7793 94.346 89.8672C93.8193 90.7545 93.3799 91.6982 93.0334 92.6869C92.4361 94.3885 92.1322 96.1793 92.1348 97.9827C92.1348 106.788 99.2503 113.926 108.031 113.926C110.969 113.926 113.718 113.126 116.078 111.732Z" fill="var(--fill-0, #D6E5EF)"/>
</g>
</svg>
