<svg preserveAspectRatio="none" width="100%" height="100%" overflow="visible" style="display: block;" viewBox="0 0 127.583 82.9165" fill="none" xmlns="http://www.w3.org/2000/svg">
<g id="Group">
<path id="Vector" d="M2.91375 75.8333H119.583C121.196 75.8333 122.5 74.5296 122.5 72.9196V2.91375C122.5 2.14097 122.193 1.39985 121.647 0.853419C121.1 0.306984 120.359 0 119.586 0H2.91375C2.14098 0 1.39985 0.306984 0.853418 0.853419C0.306984 1.39985 0 2.14097 0 2.91375V72.9167C0 74.5296 1.30375 75.8333 2.91375 75.8333Z" fill="var(--fill-0, #5392BC)"/>
<path id="Vector_2" d="M2.91375 75.8333H23.3333L99.1667 0H2.91375C2.14098 0 1.39985 0.306984 0.853418 0.853419C0.306984 1.39985 0 2.14097 0 2.91375V72.9167C0 74.5296 1.30375 75.8333 2.91375 75.8333Z" fill="var(--fill-0, #689FC5)"/>
<path id="Vector_3" d="M32.7425 67.0833H11.6667C10.8931 67.0833 10.1513 66.776 9.60427 66.2291C9.05729 65.6821 8.75 64.9402 8.75 64.1667V11.6667C8.75 10.8931 9.05729 10.1513 9.60427 9.60427C10.1513 9.05729 10.8931 8.75 11.6667 8.75H32.7425C25.1504 16.1554 20.4167 26.4717 20.4167 37.9167C20.4167 49.3617 25.1504 59.6779 32.7425 67.0833ZM110.833 8.75H89.7575C97.3496 16.1554 102.083 26.4717 102.083 37.9167C102.083 49.3617 97.3496 59.6779 89.7575 67.0833H110.833C111.607 67.0833 112.349 66.776 112.896 66.2291C113.443 65.6821 113.75 64.9402 113.75 64.1667V11.6667C113.75 10.8931 113.443 10.1513 112.896 9.60427C112.349 9.05729 111.607 8.75 110.833 8.75ZM75.8333 49.5833C75.8279 52.9433 74.6647 56.1987 72.5397 58.8013C70.4147 61.4039 67.4576 63.1947 64.1667 63.8721V67.0833C64.1667 67.8569 63.8594 68.5987 63.3124 69.1457C62.7654 69.6927 62.0235 70 61.25 70C60.4765 70 59.7346 69.6927 59.1876 69.1457C58.6406 68.5987 58.3333 67.8569 58.3333 67.0833V63.8721C55.0421 63.1952 52.0848 61.4046 49.9597 58.8019C47.8346 56.1991 46.6716 52.9434 46.6667 49.5833C46.6667 48.8098 46.974 48.0679 47.5209 47.5209C48.0679 46.974 48.8098 46.6667 49.5833 46.6667C50.3569 46.6667 51.0988 46.974 51.6457 47.5209C52.1927 48.0679 52.5 48.8098 52.5 49.5833C52.5 53.3808 54.9471 56.5892 58.3333 57.7967V40.5387C51.6863 39.1825 46.6667 33.2937 46.6667 26.25C46.6667 19.2062 51.6863 13.3175 58.3333 11.9612V8.75C58.3333 7.97645 58.6406 7.23459 59.1876 6.6876C59.7346 6.14062 60.4765 5.83333 61.25 5.83333C62.0235 5.83333 62.7654 6.14062 63.3124 6.6876C63.8594 7.23459 64.1667 7.97645 64.1667 8.75V11.9612C70.8138 13.3175 75.8333 19.2062 75.8333 26.25C75.8333 27.0235 75.526 27.7654 74.9791 28.3124C74.4321 28.8594 73.6902 29.1667 72.9167 29.1667C72.1431 29.1667 71.4013 28.8594 70.8543 28.3124C70.3073 27.7654 70 27.0235 70 26.25C69.9942 24.4463 69.4304 22.6886 68.386 21.2181C67.3416 19.7476 65.8678 18.6363 64.1667 18.0367V35.2946C67.4576 35.9719 70.4147 37.7627 72.5397 40.3653C74.6647 42.9679 75.8279 46.2234 75.8333 49.5833ZM58.3333 34.4633V18.0396C54.9471 19.2471 52.5 22.4554 52.5 26.2529C52.5 30.0504 54.9471 33.2558 58.3333 34.4633ZM70 49.5833C69.9942 47.7797 69.4304 46.022 68.386 44.5515C67.3416 43.0809 65.8678 41.9696 64.1667 41.37V57.7937C65.8682 57.1958 67.3427 56.0853 68.3873 54.615C69.4319 53.1447 69.9953 51.3869 70 49.5833Z" fill="var(--fill-0, #1E6FA8)"/>
<path id="Vector_4" d="M105.583 82.9165C117.733 82.9165 127.583 73.0668 127.583 60.9165C127.583 48.7662 117.733 38.9165 105.583 38.9165C93.4327 38.9165 83.583 48.7662 83.583 60.9165C83.583 73.0668 93.4327 82.9165 105.583 82.9165Z" fill="var(--fill-0, #B9D2E4)"/>
<path id="Vector_5" d="M102.486 68.9165C102.238 68.9167 101.992 68.8708 101.763 68.7815C101.534 68.6921 101.326 68.5609 101.151 68.3956L95.1357 62.7389C94.9605 62.5739 94.8215 62.3779 94.7266 62.1622C94.6318 61.9466 94.583 61.7154 94.583 61.482C94.583 61.2486 94.6318 61.0174 94.7266 60.8018C94.8215 60.5861 94.9605 60.3902 95.1357 60.2251C95.3109 60.06 95.5189 59.9291 95.7478 59.8398C95.9768 59.7504 96.2222 59.7045 96.4699 59.7045C96.7177 59.7045 96.9631 59.7504 97.192 59.8398C97.421 59.9291 97.629 60.06 97.8042 60.2251L102.486 64.6249L114.362 53.4371C114.537 53.2721 114.745 53.1411 114.974 53.0518C115.203 52.9625 115.448 52.9165 115.696 52.9165C115.944 52.9165 116.189 52.9625 116.418 53.0518C116.647 53.1411 116.855 53.2721 117.03 53.4371C117.206 53.6022 117.345 53.7981 117.439 54.0138C117.534 54.2295 117.583 54.4606 117.583 54.694C117.583 54.9275 117.534 55.1586 117.439 55.3743C117.345 55.5899 117.206 55.7859 117.03 55.951L103.82 68.3956C103.645 68.5609 103.437 68.6921 103.208 68.7815C102.979 68.8708 102.733 68.9167 102.486 68.9165Z" fill="var(--fill-0, #1E6FA8)"/>
</g>
</svg>
