<svg preserveAspectRatio="none" width="100%" height="100%" overflow="visible" style="display: block;" viewBox="0 0 96.0102 140.34" fill="none" xmlns="http://www.w3.org/2000/svg">
<g id="Group">
<path id="Vector" d="M65.1072 112.91L54.4113 96.3542V103.599L61.7762 115.052C62.3923 116.01 62.0358 116.888 61.854 117.221C61.6721 117.554 61.1264 118.328 59.9873 118.328H36.0212C34.8824 118.328 34.3365 117.554 34.1546 117.221C33.9727 116.888 33.6166 116.01 34.2324 115.052L41.5201 103.719V96.5149L30.9017 112.91C29.6786 114.812 29.5951 117.133 30.6788 119.118C31.7624 121.104 33.7597 122.289 36.0212 122.289H59.9873C62.2491 122.289 64.2464 121.104 65.3301 119.118C66.414 117.133 66.3303 114.812 65.1072 112.91Z" fill="var(--fill-0, #A5C5DC)"/>
<path id="Vector_2" d="M40.9227 85.1282H55.0868V133.987H40.9227V85.1282Z" fill="var(--fill-0, #B9D2E4)"/>
<path id="Vector_3" d="M41.3818 88H55.5459V97.2674H41.3818V88Z" fill="var(--fill-0, #A5C5DC)"/>
<path id="Vector_4" d="M78.0744 140.34H18.8533C17.8045 140.34 17.2772 139.074 18.0163 138.329L18.1767 138.168C20.1823 136.148 22.5677 134.545 25.1954 133.451C27.8231 132.358 30.6413 131.794 33.4875 131.794H63.4405C66.2868 131.794 69.1049 132.358 71.7326 133.451C74.3603 134.545 76.7457 136.148 78.7513 138.168L78.9117 138.329C79.6505 139.074 79.1233 140.34 78.0744 140.34Z" fill="var(--fill-0, #98BDD7)"/>
<path id="Vector_5" d="M78.6495 87.6601H17.3604C13.8722 87.6601 11.0441 84.8324 11.0441 81.3438V75.9403L48.4511 73.1116L84.9656 75.9403V81.3438C84.9659 84.8324 82.1378 87.6601 78.6495 87.6601Z" fill="var(--fill-0, #154F77)"/>
<path id="Vector_6" d="M76.4735 75.9403C76.3402 79.3109 73.567 82.0029 70.1636 82.0029H11.0783C11.4079 85.1814 14.0945 87.6601 17.3604 87.6601H78.6495C82.1378 87.6601 84.9659 84.8324 84.9659 81.3438V75.9403L80.3897 73.1116L76.4735 75.9403Z" fill="var(--fill-0, #14486C)"/>
<path id="Vector_7" d="M65.1072 112.91L61.1742 106.822H56.4844L61.7765 115.052C62.3925 116.01 62.0361 116.888 61.8542 117.221C61.6724 117.554 61.1267 118.329 59.9876 118.329H36.0215C34.8827 118.329 34.3368 117.554 34.1549 117.221C33.973 116.888 33.6169 116.01 34.2327 115.052L39.5247 106.823H34.8445L30.9019 112.91C29.6788 114.812 29.5954 117.133 30.6791 119.118C31.7627 121.104 33.76 122.289 36.0215 122.289H59.9876C62.2494 122.289 64.2467 121.104 65.3303 119.118C66.414 117.133 66.3303 114.812 65.1072 112.91Z" fill="var(--fill-0, #A5C5DC)"/>
<path id="Vector_8" d="M90.1061 75.9403H82.0145L79.1858 62.0876L82.0145 55.2327C82.0145 51.3679 85.1475 48.235 89.0122 48.235C92.877 48.235 96.01 51.3679 96.01 55.2327V70.0361C96.01 73.2969 93.3666 75.9403 90.1061 75.9403Z" fill="var(--fill-0, #B9D2E4)"/>
<path id="Vector_9" d="M89.0122 48.235C88.4669 48.235 87.9368 48.2994 87.4271 48.4177C87.4899 48.7945 87.5241 49.1809 87.5241 49.5757V64.3794C87.5241 67.507 85.0903 70.0595 82.0145 70.2635L79.1858 73.2828L82.0145 75.9408H90.1061C93.3666 75.9408 96.01 73.2975 96.01 70.0369V55.2333C96.01 51.3679 92.877 48.235 89.0122 48.235Z" fill="var(--fill-0, #A5C5DC)"/>
<path id="Vector_10" d="M13.9955 75.9403H5.90392C2.64336 75.9403 1.37091e-06 73.2969 1.37091e-06 70.0363V55.233C1.37091e-06 51.3682 3.13299 48.2352 6.99775 48.2352C10.8625 48.2352 13.9955 51.3682 13.9955 55.233L19.6528 64.9621L13.9955 75.9403Z" fill="var(--fill-0, #B9D2E4)"/>
<path id="Vector_11" d="M82.0145 75.9403L44.16 73.1116L13.9955 75.9403V14.8435C13.9955 6.64559 20.6411 0 28.839 0H67.1709C75.3689 0 82.0145 6.64559 82.0145 14.8435V75.9403Z" fill="var(--fill-0, #154F77)"/>
<path id="Vector_12" d="M70.6584 0.416092C72.5268 2.95809 73.5325 6.03144 73.5283 9.18626V70.283L82.0142 75.9403V14.8435C82.0142 7.84747 77.1727 1.98542 70.6584 0.416092Z" fill="var(--fill-0, #14486C)"/>
<path id="Vector_13" d="M82.0145 75.9403H13.9955V74.7749C13.9955 65.8689 21.2153 58.6491 30.1212 58.6491H65.8884C74.7944 58.6491 82.0142 65.8689 82.0142 74.7749V75.9403H82.0145Z" fill="var(--fill-0, #1E6FA8)"/>
<path id="Vector_14" d="M70.1254 59.2154C70.2374 59.3601 70.3419 59.5104 70.4386 59.6657C73.3337 64.2821 69.868 70.283 64.419 70.283H14.6342C14.2107 71.7427 13.9956 73.255 13.9955 74.7749V75.9403H82.0142V74.7749C82.0142 74.2717 81.9913 73.7738 81.946 73.2825C81.3243 66.509 76.5119 60.9505 70.1254 59.2154Z" fill="var(--fill-0, #1B6599)"/>
<g id="Group_2">
<path id="Vector_15" d="M61.4684 22.1587H34.5416C34.0164 22.1587 33.5128 21.95 33.1414 21.5787C32.7701 21.2074 32.5615 20.7037 32.5615 20.1786C32.5615 19.6535 32.7701 19.1498 33.1414 18.7785C33.5128 18.4072 34.0164 18.1986 34.5416 18.1986H61.4684C61.9936 18.1986 62.4972 18.4072 62.8685 18.7785C63.2399 19.1498 63.4485 19.6535 63.4485 20.1786C63.4485 20.7037 63.2399 21.2074 62.8685 21.5787C62.4972 21.95 61.9936 22.1587 61.4684 22.1587ZM61.4684 33.5419H34.5416C34.2815 33.5419 34.024 33.4907 33.7838 33.3912C33.5436 33.2917 33.3253 33.1458 33.1414 32.962C32.9576 32.7781 32.8117 32.5598 32.7122 32.3196C32.6127 32.0794 32.5615 31.8219 32.5615 31.5619C32.5615 31.3018 32.6127 31.0444 32.7122 30.8041C32.8117 30.5639 32.9576 30.3456 33.1414 30.1618C33.3253 29.9779 33.5436 29.8321 33.7838 29.7326C34.024 29.633 34.2815 29.5818 34.5416 29.5818H61.4684C61.7284 29.5818 61.9859 29.633 62.2262 29.7326C62.4664 29.8321 62.6847 29.9779 62.8685 30.1618C63.0524 30.3456 63.1982 30.5639 63.2977 30.8041C63.3972 31.0444 63.4485 31.3018 63.4485 31.5619C63.4485 31.8219 63.3972 32.0794 63.2977 32.3196C63.1982 32.5598 63.0524 32.7781 62.8685 32.962C62.6847 33.1458 62.4664 33.2917 62.2262 33.3912C61.9859 33.4907 61.7284 33.5419 61.4684 33.5419Z" fill="var(--fill-0, #14486C)"/>
</g>
</g>
</svg>
