<svg width="140" height="140" viewBox="0 0 140 140" fill="none" xmlns="http://www.w3.org/2000/svg">
  <!-- Background circle -->
  <circle cx="70" cy="70" r="65" fill="#E9F1F6"/>
  <!-- Hand -->
  <path d="M95 55C95 55 98 52 100 54C102 56 100 60 98 62L88 72V95C88 97 86 99 84 99H78C76 99 74 97 74 95V85" fill="#F0D0B0" stroke="#E0B090" stroke-width="1"/>
  <path d="M74 55V95C74 97 72 99 70 99" fill="#F0D0B0"/>
  <!-- Phone body -->
  <rect x="38" y="28" width="48" height="84" rx="8" fill="#1E6FA8"/>
  <!-- Phone screen -->
  <rect x="42" y="38" width="40" height="60" rx="2" fill="#E9F1F6"/>
  <!-- Screen content - product bottle -->
  <rect x="52" y="48" width="12" height="28" rx="3" fill="#4B8CB9"/>
  <rect x="55" y="42" width="6" height="8" rx="2" fill="#689FC5"/>
  <rect x="66" y="56" width="10" height="20" rx="3" fill="#689FC5"/>
  <rect x="68" y="50" width="6" height="8" rx="2" fill="#4B8CB9"/>
  <!-- Phone notch dots -->
  <circle cx="58" cy="104" r="2" fill="#689FC5"/>
  <circle cx="62" cy="104" r="2" fill="#689FC5"/>
  <circle cx="66" cy="104" r="2" fill="#689FC5"/>
  <!-- Hand holding phone -->
  <path d="M86 45C89 43 93 44 94 47L96 55L92 70L86 75V45Z" fill="#F0D0B0"/>
  <path d="M86 45V75L88 95C88 97 86 99 84 99H78C76 99 75 97.5 75 95.5L74 55L78 42C79 39 82 38 84 40L86 45Z" fill="#EABD98"/>
  <!-- Fingers wrapping -->
  <path d="M86 48C88 47 90 48 90 50V62C90 64 88 65 86 64" fill="#F0D0B0" stroke="#E0B090" stroke-width="0.5"/>
  <path d="M86 55C88 54 91 55 91 57V66C91 68 89 69 87 68" fill="#EABD98" stroke="#E0B090" stroke-width="0.5"/>
</svg>